<svg width="1072" height="728" viewBox="0 0 1072 728" fill="none" xmlns="http://www.w3.org/2000/svg">
<line x1="173.058" y1="409.219" x2="173.058" y2="644.321" stroke="#958AF0" stroke-opacity="0.05" stroke-width="30" stroke-linecap="round"/>
<line x1="816.007" y1="409.219" x2="816.007" y2="644.321" stroke="#958AF0" stroke-opacity="0.05" stroke-width="30" stroke-linecap="round"/>
<line x1="280.216" y1="205.928" x2="280.216" y2="644.321" stroke="#958AF0" stroke-opacity="0.05" stroke-width="30" stroke-linecap="round"/>
<line x1="387.375" y1="319.936" x2="387.375" y2="644.321" stroke="#958AF0" stroke-opacity="0.05" stroke-width="30" stroke-linecap="round"/>
<line x1="708.849" y1="319.936" x2="708.849" y2="644.321" stroke="#958AF0" stroke-opacity="0.05" stroke-width="30" stroke-linecap="round"/>
<line x1="601.691" y1="479.272" x2="601.691" y2="644.321" stroke="#958AF0" stroke-opacity="0.05" stroke-width="30" stroke-linecap="round"/>
<line x1="494.533" y1="124.887" x2="494.533" y2="644.321" stroke="#958AF0" stroke-opacity="0.05" stroke-width="30" stroke-linecap="round"/>
<line x1="923.166" y1="124.887" x2="923.166" y2="644.321" stroke="#958AF0" stroke-opacity="0.05" stroke-width="30" stroke-linecap="round"/>
<line x1="72.1528" y1="-1.12534e-07" x2="72.1529" y2="728" stroke="white" stroke-opacity="0.02" stroke-width="5"/>
<line x1="1071.58" y1="661.821" x2="0.00012207" y2="661.821" stroke="white" stroke-opacity="0.02" stroke-width="5"/>
<line x1="72.3318" y1="105.64" x2="99.1213" y2="105.64" stroke="white" stroke-opacity="0.02" stroke-width="3"/>
<line x1="72.3318" y1="286.953" x2="99.1213" y2="286.953" stroke="white" stroke-opacity="0.02" stroke-width="3"/>
<line x1="72.3318" y1="196.296" x2="99.1213" y2="196.296" stroke="white" stroke-opacity="0.02" stroke-width="3"/>
<line x1="72.3318" y1="377.609" x2="99.1213" y2="377.609" stroke="white" stroke-opacity="0.02" stroke-width="3"/>
<line x1="72.3318" y1="468.266" x2="99.1213" y2="468.266" stroke="white" stroke-opacity="0.02" stroke-width="3"/>
<line x1="73.6269" y1="558.85" x2="100.239" y2="558.85" stroke="white" stroke-opacity="0.02" stroke-width="3"/>
</svg>
